<svg width="320" height="651" viewBox="0 0 320 651" fill="none" xmlns="http://www.w3.org/2000/svg">
<g opacity="0.8" filter="url(#filter0_f_4035_157)">
<ellipse cx="329.482" cy="325.318" rx="117.163" ry="120.92" transform="rotate(-101.348 329.482 325.318)" fill="url(#paint0_linear_4035_157)"/>
</g>
<g opacity="0.5">
<mask id="mask0_4035_157" style="mask-type:alpha" maskUnits="userSpaceOnUse" x="155" y="135" width="360" height="381">
<g opacity="0.3">
<path fill-rule="evenodd" clip-rule="evenodd" d="M284.795 203.959C279.049 201.628 271.606 202.76 265.789 206.823C258.741 211.494 254.79 222.828 254.974 231.161L254.869 231.092L255.027 232.553C255.115 233.44 255.211 234.145 255.403 235.101C256.398 240.059 259.283 244.095 263.529 246.364C267.374 248.443 271.817 248.773 275.65 247.189C280.237 245.319 283.581 241.3 284.616 236.342L284.754 235.681L284.795 235.495C285.226 233.536 285.611 231.786 287.064 229.652C290.563 224.607 293.601 219.066 292.371 212.934C291.585 208.794 288.866 205.585 284.795 203.959ZM282.03 235.82C281.168 239.839 278.335 243.257 274.623 244.771C270.99 246.224 267.05 245.703 263.542 243.285C260.607 241.25 258.713 238.328 257.953 234.544C256.164 225.629 261.053 214.921 264.329 211.459C265.187 210.563 266.192 209.728 267.224 209.023C272.668 205.352 278.826 204.342 283.696 206.351C286.986 207.681 289.123 210.238 289.786 213.543C290.493 217.066 289.387 221.224 286.556 225.547C285.975 226.478 285.49 227.208 285.066 227.791L285.037 227.837C283.681 229.935 283.093 230.846 282.03 235.82Z" fill="url(#paint1_linear_4035_157)"/>
<path fill-rule="evenodd" clip-rule="evenodd" d="M250.553 220.376C257.7 203.605 272.268 197.515 283.52 197.383C294.278 197.26 303.593 202.312 307.212 210.227C307.769 211.427 308.169 212.749 308.457 214.185C308.902 216.403 309.053 218.725 309.142 220.969L309.187 221.865C309.182 221.961 309.192 222.066 309.203 222.178C309.212 222.278 309.222 222.384 309.222 222.491L309.225 222.548C309.42 225.762 309.689 230.206 303.521 236.122C302.524 237.096 301.605 237.917 300.761 238.672L300.76 238.672L300.757 238.675C300.517 238.89 300.283 239.1 300.054 239.306C296.895 241.968 296.255 242.879 295.607 243.801L295.557 243.873C295.211 244.395 294.864 244.917 294.197 245.639C290.974 249.136 289.79 252.902 288.675 256.564L288.641 256.672C287.72 259.625 286.845 262.431 284.928 264.871C280.371 270.717 273.814 271.988 265.455 268.553C256.02 264.701 249.651 256.795 247.53 246.227C245.881 238.008 246.972 228.831 250.553 220.376ZM306.645 222.465C306.593 221.978 306.549 221.535 306.539 221.039L306.495 220.369C306.415 218.847 306.335 217.325 306.082 215.838L305.977 215.316C304.729 209.097 300.516 204.287 294.067 201.826C284.484 198.14 272.358 200.211 263.144 207.127C254.649 213.582 248.498 228.57 249.397 240.469C249.53 242.252 249.783 243.965 250.106 245.574C252.113 255.577 257.605 262.483 266.441 266.048C273.767 269.056 278.998 268.143 282.835 263.21C284.439 261.178 285.227 258.671 286.077 255.968L286.158 255.712C289.442 245.088 294.834 240.321 299.185 236.474L299.287 236.383C302.936 233.208 305.805 230.642 306.684 225.805C306.849 224.869 306.765 223.88 306.682 222.907C306.674 222.816 306.666 222.725 306.659 222.634L306.651 222.541L306.645 222.465Z" fill="url(#paint2_linear_4035_157)"/>
<path fill-rule="evenodd" clip-rule="evenodd" d="M299.279 192.954C286.271 190.181 271.811 192.992 260.637 200.482C253.659 205.276 247.326 213.514 243.304 223.143C240.111 230.841 236.855 242.941 239.674 256.988C240.494 261.076 241.801 265.111 243.566 268.965C248.098 278.732 255.194 285.542 265.289 289.759C274.959 293.881 282.576 293.619 287.924 289.017C293.627 284.163 294.739 278.013 295.721 272.568L295.764 272.333C297.79 261.295 299.549 259.042 304.791 253.466C305.761 252.457 306.567 251.752 307.573 251.143C308.215 250.743 308.856 250.343 309.489 249.899L311.283 248.724C320.135 243.374 329.063 236.38 327.905 225.438C327.887 225.124 327.835 224.864 327.765 224.516C327.599 223.689 327.355 222.924 327.111 222.159C327.09 222.087 327.069 222.016 327.048 221.945L326.907 221.476C326.866 221.34 326.825 221.205 326.784 221.067C326.757 220.977 326.729 220.886 326.702 220.793C326.379 219.636 326.127 218.601 325.917 217.557C325.167 214.27 324.513 211.46 322.131 207.686C317.412 200.354 309.32 195.101 299.279 192.954ZM323.206 217.763C323.278 218.065 323.349 218.362 323.429 218.645L323.429 218.646C323.594 219.245 323.76 219.845 323.969 220.437C324.352 221.672 324.735 222.907 325.006 224.255C325.547 226.951 325.794 230.657 323.04 235.145C319.992 239.964 315.64 242.783 311.002 245.75L310.871 245.835C304.965 249.671 298.876 253.625 295.579 262.191C294.329 265.4 293.749 268.518 293.177 271.594L293.135 271.82C292.471 275.482 291.825 279.005 290.137 282.058C287.86 286.225 284.358 289.009 280.489 289.74C273.394 291.028 263.829 286.976 257.49 282.367C249.657 276.609 244.511 267.825 242.189 256.257C241.779 254.213 241.447 252.108 241.227 249.89C239.48 232.868 248.851 211.669 262.106 202.631C273.757 194.818 289.11 192.416 302.129 196.363C311.546 199.224 318.476 204.981 321.678 212.617C322.181 213.787 322.503 215.027 322.818 216.244L322.819 216.246L322.82 216.25C322.874 216.46 322.929 216.67 322.984 216.879C323.065 217.174 323.136 217.47 323.206 217.762L323.206 217.763Z" fill="url(#paint3_linear_4035_157)"/>
<path fill-rule="evenodd" clip-rule="evenodd" d="M241.646 215.106C232.995 229.102 228.911 245.394 230.437 259.746C230.718 262.268 231.129 264.765 231.618 267.2L231.714 267.679C233.799 278.073 237.558 286.909 242.859 293.989C248.455 301.416 255.923 307.156 265.098 311.061C277.997 316.661 287.843 316.268 294.412 309.883C301.217 303.398 302.07 296.056 302.973 288.291L302.993 288.119C303.928 279.743 304.951 271.123 313.712 263.076C314.9 262.023 317.127 260.083 319.043 259.292C323.258 257.586 328.426 255.237 336.452 248.921C341.341 245.181 344.441 240.396 345.441 235.038C345.976 232.081 345.902 228.793 345.213 225.357C344.785 223.226 344.115 221.008 343.236 218.651C338.493 206.483 328.382 196.342 315.388 190.942C301.795 185.255 286.273 185.023 271.617 190.226C267.402 191.705 263.37 193.645 259.608 196.029C252.898 200.361 246.694 206.99 241.646 215.106ZM342.706 225.905C344.452 234.603 341.952 241.258 334.897 246.791C327.139 252.871 322.136 255.142 318.095 256.813C314.713 258.17 306.565 264.329 302.968 274.507C301.385 278.986 300.879 283.431 300.389 287.737L300.371 287.893C299.828 292.515 299.313 296.906 297.49 300.941C294.808 306.908 290.292 310.936 285.036 311.945C275.746 313.764 262.96 308.277 254.39 301.99C244.108 294.372 237.31 282.526 234.159 266.826C233.679 264.434 233.277 261.981 232.996 259.459C231.428 246.02 235.434 230.015 243.712 216.637C248.587 208.782 254.575 202.423 261.008 198.282C264.614 196.02 268.472 194.114 272.479 192.722C304.054 181.454 332.487 197.916 340.721 219.608C341.704 221.809 342.313 223.948 342.706 225.905Z" fill="url(#paint4_linear_4035_157)"/>
<path fill-rule="evenodd" clip-rule="evenodd" d="M330.705 267.266C328.077 268.337 325.71 269.807 323.613 271.721C312.017 282.055 311.197 293.033 310.438 303.636L310.436 303.656C310.001 309.572 309.59 315.167 307.447 320.658C304.221 329.087 297.791 335.037 290.262 336.639C283.193 338.057 274.923 336.641 264.975 332.258C248.787 325.328 237.825 314.769 230.51 299.001C227.527 292.451 225.158 285.145 223.709 277.926C221.58 267.314 221.385 256.903 223.127 247.822C224.506 240.307 226.822 232.965 230.024 225.989C234.628 215.881 240.491 207.33 247.424 200.51C254.928 193.168 263.78 187.817 273.658 184.659C282.513 181.796 291.682 180.499 301.009 180.889C309.702 181.271 318.137 183.062 326.192 186.331C333.796 189.375 340.751 193.679 346.822 199.202C355.507 206.959 361.896 217.666 363.93 227.799C366.164 238.932 362.557 248.161 353.143 255.208C342.982 262.816 336.353 265.212 331.031 267.137L330.913 267.179L330.705 267.266ZM361.267 228.243C360.673 225.286 359.594 222.155 358.132 218.919C343.062 189.687 307.857 176.348 274.381 187.138C269.377 188.73 264.547 190.966 260.048 193.724C237.23 207.939 221.436 241.646 224.87 268.871C225.229 271.785 225.718 274.673 226.268 277.412C230.23 297.157 238.664 311.977 251.402 321.5C262.196 329.423 278.211 336.388 289.695 334.038C296.244 332.724 301.929 327.33 304.948 319.667C306.943 314.566 307.346 309.153 307.773 303.42L307.774 303.401L307.828 302.734C308.254 297.512 308.695 292.097 310.461 286.666C313.625 277.028 321.561 268.016 329.756 264.788L330.302 264.587C335.393 262.751 341.741 260.437 351.501 253.095C360.013 246.727 363.3 238.376 361.267 228.243Z" fill="url(#paint5_linear_4035_157)"/>
<path fill-rule="evenodd" clip-rule="evenodd" d="M317.877 319.261C317.557 325.942 317.227 332.844 314.896 339.341C311.386 349.501 303.673 356.93 294.843 358.792C286.525 360.507 276.659 358.777 264.775 353.516C244.914 344.699 232.711 332.897 223.96 314.023C220.272 305.986 217.529 297.489 215.784 288.791L215.635 288.052C213.444 276.91 212.548 267.272 215.004 253.659C220.082 226.129 238.97 190.082 275.534 179.17C295.525 173.122 317.224 174.016 336.659 181.607C349.036 186.407 359.959 193.851 368.247 203.226C375.597 211.524 380.666 221.047 382.481 230.093C383.31 234.225 383.463 238.13 382.868 241.688C381.585 249.455 377.151 256.136 369.67 261.573C357.911 270.181 350.038 272.77 343.733 274.843L343.476 274.928C339.833 276.111 336.773 277.495 333.436 280.426C319.084 292.988 318.457 306.279 317.883 319.152L317.877 319.261ZM294.32 356.183C302.291 354.538 309.033 347.892 312.414 338.437C314.645 332.243 314.932 325.807 315.193 319.013C315.489 312.394 315.793 305.592 317.945 298.781C321.653 286.908 331.331 276.234 341.426 272.806L342.189 272.562L342.318 272.52C348.973 270.329 356.573 267.827 368.071 259.451C371.547 256.989 374.459 253.962 376.719 250.387C380.234 244.75 381.267 237.756 379.749 230.189C376.799 215.49 364.547 200.078 347.774 190.008C326.433 177.189 301.027 174.235 276.275 181.736C235.374 193.97 212.05 242.535 216.734 278.466C217.12 281.51 217.635 284.529 218.229 287.486C221.563 304.099 229.528 326.93 248.389 341.106C258.697 348.855 279.47 359.299 294.32 356.183Z" fill="url(#paint6_linear_4035_157)"/>
<path fill-rule="evenodd" clip-rule="evenodd" d="M343.25 289.088C346.37 286.426 349.951 284.486 353.862 283.294C354.161 283.212 354.458 283.118 354.756 283.024C355.053 282.931 355.35 282.837 355.649 282.755C363.142 280.527 372.5 277.699 386.231 267.886C394.951 261.657 400.087 253.976 401.534 244.999C402.171 240.981 402.071 236.658 401.18 232.222C397.401 213.391 379.231 188.943 347.159 176.83C336.362 172.709 325.045 170.275 313.506 169.65C274.358 167.463 249.488 185.166 235.529 200.364C224.395 212.551 215.737 227.861 210.509 244.744C205.772 260.036 204.168 275.649 206.032 288.757L206.085 289.244C206.531 292.367 207.064 295.472 207.666 298.473C211.672 318.434 221.187 345.841 243.773 362.843C249.617 367.235 256.45 371.157 264.636 374.853C278.464 381.035 289.875 383.043 299.477 380.98C304.976 379.832 309.857 376.952 314.007 372.455C324.613 360.78 324.936 348.229 325.259 334.999L325.259 334.992C325.657 319.668 326.066 303.936 343.25 289.088ZM298.944 378.328C289.898 380.234 279.042 378.295 265.717 372.373C257.688 368.782 251.055 364.956 245.367 360.668C223.467 344.162 214.178 317.434 210.259 297.907C209.605 294.645 209.028 291.323 208.573 287.931C203.488 250.451 225.704 204.235 258.085 184.843C280.054 171.794 308.264 168.485 335.541 175.814C360.761 182.561 381.654 197.867 392.86 217.741C395.764 222.994 397.688 228.082 398.657 232.909L398.665 232.953C400.306 241.129 399.092 248.566 395.108 255.02C392.692 258.943 389.183 262.588 384.675 265.755C371.3 275.316 362.237 278.04 354.917 280.232C354.596 280.319 354.288 280.415 353.98 280.511C353.672 280.607 353.365 280.702 353.044 280.789C344.709 283.321 336.449 290.272 330.344 299.867C323.194 311.432 322.894 323.206 322.604 334.571L322.603 334.582L322.595 334.895C322.382 342.694 322.182 350.047 319.785 357.18C316.128 368.41 308.294 376.361 298.944 378.328Z" fill="url(#paint7_linear_4035_157)"/>
<path fill-rule="evenodd" clip-rule="evenodd" d="M313.146 399.41C310.371 401.098 307.284 402.351 304.084 403.038C298.029 404.344 291.193 404.223 283.721 402.736C277.829 401.476 271.527 399.302 264.487 396.145C255.113 391.919 247.36 387.458 240.717 382.458C215.083 363.081 204.253 331.822 199.671 308.99C198.99 305.371 198.326 301.614 197.801 297.874C195.744 283.131 197.546 265.578 202.939 248.39C208.885 229.462 218.686 212.204 231.284 198.546C247.141 181.339 275.357 161.426 319.746 164.1C332.752 164.837 345.483 167.576 357.678 172.141C373.909 178.158 388.408 187.463 399.623 199.056C409.69 209.432 416.723 221.321 419.426 232.541C419.609 233.228 419.74 233.881 419.88 234.576C420.787 239.099 420.906 243.736 420.252 248.346C419.407 253.356 417.505 258.262 414.647 262.455C411.685 266.804 407.698 270.771 402.757 274.251C387.18 285.204 376.633 288.18 368.177 290.555C367.726 290.689 367.283 290.812 366.845 290.932C366.374 291.062 365.908 291.19 365.445 291.33C360.502 292.774 356.539 294.836 353.073 297.794C333.043 314.888 332.848 333.024 332.669 350.568L332.668 350.629C332.487 365.663 332.315 379.925 320.487 393.277C318.347 395.652 315.877 397.731 313.146 399.41ZM303.569 400.472C314.333 398.131 323.189 388.98 327.285 375.897C329.904 367.59 329.964 359.118 330.014 350.151C330.146 337.095 330.286 323.63 338.495 310.356C341.733 305.137 345.961 300.352 351.352 295.741C357.055 290.887 362.606 289.321 366.665 288.19L367.35 288.007L367.473 287.972C375.778 285.629 386.132 282.707 401.236 272.068C414.681 262.629 420.219 249.755 417.243 234.925C416.082 229.141 413.645 223.07 410.003 216.834C382.132 169.45 306.413 151.393 257.065 180.434C215.389 204.993 195.223 260.298 200.377 297.447C200.885 301.1 201.531 304.771 202.238 308.294C206.733 330.691 217.31 361.368 242.302 380.239C248.788 385.136 256.385 389.492 265.56 393.623C280.829 400.466 293.23 402.683 303.569 400.472Z" fill="url(#paint8_linear_4035_157)"/>
<path fill-rule="evenodd" clip-rule="evenodd" d="M380.489 298.4C379.283 298.687 378.173 299 377.063 299.313C371.209 300.94 366.865 303.124 362.895 306.5C340.031 325.882 340.03 346.331 340.079 366.137L340.079 366.301C340.091 383.158 340.102 399.108 326.984 414.186C324.593 416.883 321.854 419.197 318.811 421.12C315.681 423.06 312.264 424.469 308.674 425.235C301.891 426.732 294.186 426.559 285.838 424.751C279.243 423.36 272.212 420.925 264.279 417.36C253.758 412.595 245.041 407.603 237.643 401.985C208.969 380.278 196.807 345.079 191.649 319.376L191.623 319.246C190.846 315.375 190.182 311.392 189.596 307.347C186.403 284.915 191.151 257.994 202.626 233.568C205.214 228.027 208.14 222.599 211.335 217.389C222.904 198.599 237.921 183.506 254.758 173.658C274.508 162.139 299.765 156.709 326.003 158.41C340.397 159.322 354.621 162.303 368.17 167.321C381.024 172.025 393.083 178.608 403.955 186.922C414.575 195.105 423.227 204.498 429.53 214.77C433.537 221.25 436.356 227.651 437.916 233.853C438.143 234.757 438.369 235.662 438.552 236.575C439.556 241.576 439.666 246.621 438.961 251.649C438.109 257.294 435.911 262.757 432.707 267.471C429.399 272.343 424.91 276.727 419.37 280.598C401.945 292.671 390.095 295.835 380.558 298.381L380.489 298.4ZM192.224 306.955C192.802 310.956 193.475 314.983 194.251 318.854C199.313 344.078 211.249 378.599 239.28 399.802C246.513 405.272 255.039 410.211 265.403 414.872C282.608 422.594 296.605 425.124 308.193 422.617C320.336 419.954 330.284 409.498 334.743 394.623C337.501 385.344 337.505 375.902 337.511 365.878L337.511 365.567C337.513 345.386 337.515 324.498 361.262 304.43C367.541 299.101 373.746 297.446 379.224 295.985L379.237 295.982L379.879 295.808L379.963 295.785C389.238 293.291 400.824 290.176 417.841 278.372C432.968 267.871 439.197 253.501 435.846 236.802C434.511 230.148 431.622 223.172 427.276 216.127C400.824 173.118 336.969 150.781 281.903 165.27C254.34 172.475 230.746 190.918 213.679 218.502C196.611 246.085 188.392 279.992 192.224 306.955Z" fill="url(#paint9_linear_4035_157)"/>
<path fill-rule="evenodd" clip-rule="evenodd" d="M388.681 307.297C383.885 308.576 378.23 310.525 372.787 315.101C347.046 336.78 347.29 359.803 347.577 382.14L347.578 382.275C347.774 400.961 347.959 418.651 333.559 435.035C330.96 438.045 327.918 440.646 324.554 442.769C321.069 444.961 317.314 446.484 313.341 447.371C305.821 449.016 297.31 448.869 288.059 446.835C280.752 445.27 272.941 442.54 264.165 438.601C252.498 433.297 242.853 427.722 234.664 421.539C219.554 410.094 207.146 394.126 197.857 374.139C191.672 360.858 186.918 345.932 183.671 329.754C180.119 312.054 178.827 297.746 182.541 276.913C185.118 262.552 189.587 248.626 195.783 235.439C198.587 229.402 201.773 223.47 205.28 217.79C218.182 196.878 234.932 180.08 253.772 169.196C275.343 156.633 303.185 150.82 332.182 152.782C348.034 153.763 363.672 157.049 378.618 162.509C392.818 167.622 406.118 174.77 418.214 183.789C430.059 192.677 439.684 202.87 446.794 214.02C451.348 221.204 454.576 228.293 456.414 235.207L456.445 235.332C456.704 236.409 456.954 237.448 457.164 238.495C458.299 244.149 458.462 249.681 457.67 254.952C456.714 261.206 454.275 267.26 450.715 272.453C447.052 277.803 442.078 282.692 435.931 286.911C416.661 300.13 403.521 303.495 392.957 306.201L392.757 306.252C391.508 306.548 390.051 306.931 388.681 307.297ZM342.2 413.35C345.172 402.981 345.082 392.413 344.964 381.262L344.964 381.257C344.729 358.731 344.487 335.482 371.171 313.118C378.07 307.255 385.07 305.488 391.254 303.93L392.026 303.73C402.46 301.093 415.461 297.76 434.497 284.711C440.999 280.239 446.094 275.055 449.636 269.322C455.178 260.293 456.883 250.133 454.649 239C453.113 231.346 449.72 223.431 444.583 215.368C414.839 168.768 344.206 144.352 283.771 159.738C253.423 167.456 226.37 188.448 207.571 218.868C188.772 249.287 179.768 286.699 184.063 316.42C184.693 320.682 185.409 324.926 186.238 329.058C191.902 357.283 205.179 395.787 236.31 419.399C244.299 425.487 253.788 430.957 265.299 436.157C284.396 444.766 299.937 447.573 312.818 444.762C328.803 441.237 338.468 426.223 342.2 413.35Z" fill="url(#paint10_linear_4035_157)"/>
<path fill-rule="evenodd" clip-rule="evenodd" d="M432.552 180.595C419.275 170.863 404.681 163.115 389.145 157.637C372.801 151.733 355.758 148.186 338.431 147.049C312.41 145.304 288.685 148.708 268.021 157.243C248.31 165.361 230.627 178.41 215.43 195.982C209.47 202.924 204.021 210.396 199.172 218.156C191.137 231.169 184.707 245.217 180.005 259.778C177.619 267.224 175.737 274.931 174.349 282.629C173.031 289.996 172.241 297.529 172.033 305.035C171.859 311.585 172.144 318.178 172.994 324.658L173.23 326.285C173.921 330.851 174.698 335.4 175.588 339.836L175.615 339.967C176.854 346.142 178.293 352.187 179.904 357.971C182.85 368.6 186.662 379.055 191.29 389.074C201.466 411.01 215.03 428.465 231.581 441.023C240.525 447.824 251.135 453.929 263.991 459.763C273.617 464.12 282.201 467.102 290.22 468.841C300.364 471.058 309.7 471.266 317.949 469.429C322.311 468.463 326.43 466.732 330.193 464.348C333.869 461.982 337.171 459.102 340.03 455.814C345.488 449.516 349.66 441.531 352.14 432.754C355.448 421.067 355.22 408.882 354.999 397.045L354.994 396.817C354.558 372.62 354.107 347.615 382.601 323.763C388.512 318.822 394.592 316.742 400.255 315.289C401.799 314.889 403.343 314.488 404.982 314.114C416.639 311.277 431.176 307.726 452.449 293.233C459.194 288.622 464.67 283.315 468.715 277.392C472.664 271.668 475.303 265.031 476.362 258.168C477.205 252.479 477.05 246.538 475.829 240.45C475.567 239.145 475.253 237.806 474.896 236.475C472.83 228.882 469.186 221.063 464.006 213.235C456.122 201.154 445.533 190.205 432.552 180.595ZM349.606 432.041C345.614 446.324 335.015 462.973 317.39 466.872C303.261 469.979 286.131 466.902 265.09 457.371C252.433 451.632 241.98 445.632 233.192 438.935C199.074 413.028 184.474 370.626 178.252 339.618C177.353 335.139 176.566 330.546 175.867 325.937C171.065 293.467 180.916 252.628 201.525 219.312C222.342 185.683 252.22 162.586 285.647 154.249C351.408 137.975 428.828 164.512 461.856 214.662C467.636 223.455 471.429 232.239 473.131 240.72C475.592 252.984 473.705 264.266 467.54 274.234C463.661 280.532 458.071 286.178 451.006 290.989C431.64 304.195 418.353 308.128 404.242 311.548L403.643 311.714C396.202 313.524 388.508 315.429 380.933 321.745C351.456 346.39 351.912 372.041 352.375 396.831C352.615 409.043 352.82 420.629 349.606 432.041Z" fill="url(#paint11_linear_4035_157)"/>
<path fill-rule="evenodd" clip-rule="evenodd" d="M446.802 177.418C432.805 167.243 416.927 158.938 399.62 152.73C381.931 146.417 363.429 142.575 344.679 141.316C325.287 140.005 305.812 141.651 286.921 146.212C272.419 149.71 258.467 155.722 245.524 164.065C233.057 172.086 221.47 182.238 211.03 194.287C204.48 201.889 198.451 210.066 193.178 218.635C184.458 232.735 177.527 247.88 172.444 263.693C169.868 271.766 167.805 280.142 166.279 288.501C164.866 296.521 164.025 304.697 163.757 312.804C163.541 320.493 163.966 328.234 165.086 335.836C165.794 340.716 166.676 345.561 167.628 350.301L167.645 350.388C169.015 357.216 170.628 363.904 172.406 370.289C175.63 381.857 179.764 393.242 184.792 404.131C195.899 428.006 210.627 446.993 228.568 460.629C238.311 468.039 249.849 474.726 263.842 481.056C274.363 485.822 283.676 489.065 292.354 490.943C297.318 492.073 302.412 492.725 307.505 492.924C312.554 493.132 317.603 492.662 322.582 491.618C327.335 490.573 331.783 488.685 335.901 486.049C339.898 483.483 343.46 480.325 346.57 476.715C352.496 469.825 357.015 461.092 359.641 451.471C363.133 438.728 362.833 425.496 362.541 412.653L362.534 412.312C361.921 385.903 361.288 358.558 392.554 332.442C398.621 327.379 404.709 325.117 412.012 323.29C412.93 323.056 413.864 322.832 414.832 322.601C415.629 322.41 416.449 322.214 417.303 322.002L417.346 321.993C430.096 318.982 445.942 315.214 469.184 299.511C476.258 294.743 482.012 289.245 486.334 283.13C490.569 277.258 493.52 270.378 494.934 263.263C496.21 256.582 496.15 249.537 494.701 242.318C494.465 241.143 494.177 239.934 493.898 238.769C491.667 230.123 487.449 221.243 481.478 212.398C472.579 199.526 460.965 187.741 446.802 177.418ZM492.039 243.44C493.33 249.876 493.373 256.383 492.183 262.819C491.071 268.517 488.952 273.919 485.877 278.833C481.548 285.81 475.404 292.064 467.576 297.345C444.779 312.756 429.201 316.445 416.68 319.409L416.606 319.427L416.476 319.453L416.241 319.509C406.956 321.73 398.922 323.652 390.791 330.399C358.554 357.348 359.214 385.239 359.853 412.238L359.854 412.295C360.183 425.62 360.458 438.233 357.063 450.767C352.77 466.468 341.322 484.735 322.015 489.017C306.593 492.428 287.91 489.03 264.933 478.621C251.087 472.351 239.705 465.768 230.171 458.498C193.004 430.216 177.081 383.918 170.274 349.996C169.322 345.256 168.466 340.315 167.714 335.445C162.458 300.261 173.094 255.917 195.478 219.756C210.632 195.226 230.58 175.479 253.113 162.542C263.873 156.356 275.484 151.719 287.523 148.76C359.789 131.181 442.156 159.214 479.12 213.912C485.725 223.67 490.031 233.437 491.934 242.918L492.039 243.44Z" fill="url(#paint12_linear_4035_157)"/>
<path fill-rule="evenodd" clip-rule="evenodd" d="M341.549 507.672C345.858 504.862 349.732 501.46 353.05 497.537C359.444 490.056 364.265 480.583 367.046 470.163C368.722 463.9 369.685 457.011 370.032 449.069C370.344 442.092 370.119 434.907 369.903 427.99L369.902 427.968L369.901 427.905C369.051 399.186 368.175 369.531 402.334 341.157C410.648 334.266 418.935 332.353 429.384 329.942L429.536 329.907L429.569 329.899C443.363 326.724 460.521 322.775 485.667 305.884C493.295 300.734 499.587 294.767 504.273 288.216C508.863 281.866 512.056 274.394 513.574 266.67C514.893 259.529 514.788 252.04 513.252 244.386C512.973 242.994 512.642 241.567 512.267 240.15C509.757 230.791 505.174 221.215 498.569 211.682C493.624 204.577 487.994 197.88 481.853 191.783C475.434 185.426 468.434 179.547 461.105 174.277C453.464 168.798 445.337 163.823 436.986 159.527C428.331 155.066 419.295 151.179 410.155 147.901C391.034 141.197 371.127 137.094 350.954 135.714C330.087 134.246 309.171 135.91 288.789 140.679C256.966 148.242 227.725 167.094 204.281 195.279C198.026 202.777 192.24 210.815 187.097 219.131L184.655 223.15C178.975 232.84 173.981 243.027 169.812 253.5C165.764 263.677 162.471 274.245 160.054 284.91C157.724 295.104 156.209 305.542 155.649 316.015C155.088 325.809 155.534 335.672 156.942 345.388C157.712 350.572 158.611 355.73 159.624 360.774C161.125 368.255 162.869 375.596 164.855 382.571C168.306 395.044 172.849 407.342 178.242 419.154C190.228 444.934 206.129 465.494 225.503 480.2C235.993 488.184 248.503 495.445 263.685 502.306C275.048 507.445 285.142 510.984 294.532 513.036C299.913 514.218 305.388 514.974 310.889 515.182C316.346 515.399 321.837 514.885 327.163 513.771C332.289 512.561 337.119 510.551 341.549 507.672ZM510.755 245.43C512.134 252.301 512.177 259.259 510.936 266.114C509.746 272.324 507.454 278.213 504.102 283.546C499.4 291.14 492.719 297.864 484.172 303.606C459.448 320.24 442.5 324.138 428.909 327.228C418.041 329.726 409.463 331.718 400.596 339.017C384.778 352.145 374.879 366.663 370.344 383.407C366.318 398.123 366.762 413.01 367.193 427.423L367.204 427.785L367.218 428.287C367.63 442.541 368.02 456.045 364.451 469.371C359.891 486.438 347.56 506.375 326.57 511.04C309.856 514.756 289.628 511.079 264.715 499.792C249.724 492.983 237.421 485.861 227.044 477.991C186.795 447.387 169.575 397.096 162.191 360.304C161.179 355.26 160.27 350.058 159.492 344.831C153.703 306.316 164.657 259.963 188.877 220.81C214.076 180.239 249.779 152.67 289.399 143.271C367.182 124.857 456.18 154.906 496.436 213.196C503.762 223.85 508.564 234.514 510.65 244.908L510.755 245.43Z" fill="url(#paint13_linear_4035_157)"/>
</g>
</mask>
<g mask="url(#mask0_4035_157)">
<g filter="url(#filter1_f_4035_157)">
<circle cx="341.517" cy="343.948" r="189.541" transform="rotate(-99.8125 341.517 343.948)" fill="#02FE85"/>
<circle cx="323.643" cy="167.927" r="46.2242" transform="rotate(-99.8125 323.643 167.927)" fill="#05EE76"/>
<circle cx="249.101" cy="250.848" r="71.8797" transform="rotate(-99.8125 249.101 250.848)" fill="#02DCB2"/>
<circle cx="349.238" cy="334.083" r="46.2242" transform="rotate(-99.8125 349.238 334.083)" fill="#02DCB2"/>
<circle cx="299.557" cy="272.647" r="46.2242" transform="rotate(-99.8125 299.557 272.647)" fill="#05EE76"/>
<circle cx="338.991" cy="228.119" r="46.2242" transform="rotate(-99.8125 338.991 228.119)" fill="#05EE76"/>
<circle cx="251.734" cy="170.039" r="46.2242" transform="rotate(-99.8125 251.734 170.039)" fill="black"/>
<circle cx="271.807" cy="325.03" r="46.2242" transform="rotate(-99.8125 271.807 325.03)" fill="black"/>
<circle cx="293.44" cy="394.236" r="49.0994" transform="rotate(-99.8125 293.44 394.236)" fill="black"/>
<circle cx="200.872" cy="147.188" r="49.0994" transform="rotate(-99.8125 200.872 147.188)" fill="black"/>
<circle cx="287.586" cy="495.353" r="65.9081" transform="rotate(-99.8125 287.586 495.353)" fill="black"/>
<circle cx="276.565" cy="109.856" r="49.0994" transform="rotate(-99.8125 276.565 109.856)" fill="black"/>
<circle cx="278.334" cy="480.793" r="69.0045" transform="rotate(-99.8125 278.334 480.793)" fill="black"/>
</g>
</g>
</g>
<defs>
<filter id="filter0_f_4035_157" x="0.821625" y="0.123138" width="657.32" height="650.39" filterUnits="userSpaceOnUse" color-interpolation-filters="sRGB">
<feFlood flood-opacity="0" result="BackgroundImageFix"/>
<feBlend mode="normal" in="SourceGraphic" in2="BackgroundImageFix" result="shape"/>
<feGaussianBlur stdDeviation="103.931" result="effect1_foregroundBlur_4035_157"/>
</filter>
<filter id="filter1_f_4035_157" x="57.7098" y="-33.3058" width="567.434" height="688.633" filterUnits="userSpaceOnUse" color-interpolation-filters="sRGB">
<feFlood flood-opacity="0" result="BackgroundImageFix"/>
<feBlend mode="normal" in="SourceGraphic" in2="BackgroundImageFix" result="shape"/>
<feGaussianBlur stdDeviation="47.0274" result="effect1_foregroundBlur_4035_157"/>
</filter>
<linearGradient id="paint0_linear_4035_157" x1="257.1" y1="273.679" x2="529.139" y2="302.741" gradientUnits="userSpaceOnUse">
<stop stop-color="#19F9C3" stop-opacity="0.95"/>
<stop offset="0.9375" stop-color="#29D93B"/>
</linearGradient>
<linearGradient id="paint1_linear_4035_157" x1="321.594" y1="115.559" x2="266.372" y2="433.742" gradientUnits="userSpaceOnUse">
<stop stop-color="#FC5050"/>
<stop offset="0.56" stop-color="#7E4CA8"/>
<stop offset="1" stop-color="#0048FF"/>
</linearGradient>
<linearGradient id="paint2_linear_4035_157" x1="321.594" y1="115.559" x2="266.372" y2="433.742" gradientUnits="userSpaceOnUse">
<stop stop-color="#FC5050"/>
<stop offset="0.56" stop-color="#7E4CA8"/>
<stop offset="1" stop-color="#0048FF"/>
</linearGradient>
<linearGradient id="paint3_linear_4035_157" x1="321.594" y1="115.559" x2="266.372" y2="433.742" gradientUnits="userSpaceOnUse">
<stop stop-color="#FC5050"/>
<stop offset="0.56" stop-color="#7E4CA8"/>
<stop offset="1" stop-color="#0048FF"/>
</linearGradient>
<linearGradient id="paint4_linear_4035_157" x1="321.594" y1="115.559" x2="266.372" y2="433.742" gradientUnits="userSpaceOnUse">
<stop stop-color="#FC5050"/>
<stop offset="0.56" stop-color="#7E4CA8"/>
<stop offset="1" stop-color="#0048FF"/>
</linearGradient>
<linearGradient id="paint5_linear_4035_157" x1="321.594" y1="115.559" x2="266.372" y2="433.742" gradientUnits="userSpaceOnUse">
<stop stop-color="#FC5050"/>
<stop offset="0.56" stop-color="#7E4CA8"/>
<stop offset="1" stop-color="#0048FF"/>
</linearGradient>
<linearGradient id="paint6_linear_4035_157" x1="321.594" y1="115.559" x2="266.372" y2="433.742" gradientUnits="userSpaceOnUse">
<stop stop-color="#FC5050"/>
<stop offset="0.56" stop-color="#7E4CA8"/>
<stop offset="1" stop-color="#0048FF"/>
</linearGradient>
<linearGradient id="paint7_linear_4035_157" x1="321.594" y1="115.559" x2="266.372" y2="433.742" gradientUnits="userSpaceOnUse">
<stop stop-color="#FC5050"/>
<stop offset="0.56" stop-color="#7E4CA8"/>
<stop offset="1" stop-color="#0048FF"/>
</linearGradient>
<linearGradient id="paint8_linear_4035_157" x1="321.594" y1="115.559" x2="266.372" y2="433.742" gradientUnits="userSpaceOnUse">
<stop stop-color="#FC5050"/>
<stop offset="0.56" stop-color="#7E4CA8"/>
<stop offset="1" stop-color="#0048FF"/>
</linearGradient>
<linearGradient id="paint9_linear_4035_157" x1="321.594" y1="115.559" x2="266.372" y2="433.742" gradientUnits="userSpaceOnUse">
<stop stop-color="#FC5050"/>
<stop offset="0.56" stop-color="#7E4CA8"/>
<stop offset="1" stop-color="#0048FF"/>
</linearGradient>
<linearGradient id="paint10_linear_4035_157" x1="321.594" y1="115.559" x2="266.372" y2="433.742" gradientUnits="userSpaceOnUse">
<stop stop-color="#FC5050"/>
<stop offset="0.56" stop-color="#7E4CA8"/>
<stop offset="1" stop-color="#0048FF"/>
</linearGradient>
<linearGradient id="paint11_linear_4035_157" x1="321.594" y1="115.559" x2="266.372" y2="433.742" gradientUnits="userSpaceOnUse">
<stop stop-color="#FC5050"/>
<stop offset="0.56" stop-color="#7E4CA8"/>
<stop offset="1" stop-color="#0048FF"/>
</linearGradient>
<linearGradient id="paint12_linear_4035_157" x1="321.594" y1="115.559" x2="266.372" y2="433.742" gradientUnits="userSpaceOnUse">
<stop stop-color="#FC5050"/>
<stop offset="0.56" stop-color="#7E4CA8"/>
<stop offset="1" stop-color="#0048FF"/>
</linearGradient>
<linearGradient id="paint13_linear_4035_157" x1="321.594" y1="115.559" x2="266.372" y2="433.742" gradientUnits="userSpaceOnUse">
<stop stop-color="#FC5050"/>
<stop offset="0.56" stop-color="#7E4CA8"/>
<stop offset="1" stop-color="#0048FF"/>
</linearGradient>
</defs>
</svg>
