<svg width="933" height="1016" viewBox="0 0 933 1016" fill="none" xmlns="http://www.w3.org/2000/svg">
<g opacity="0.2" filter="url(#filter0_f_4035_154)">
<g filter="url(#filter1_f_4035_154)">
<path d="M512.039 211.406C538.138 237.192 354.048 442.021 240.23 522.812C126.412 603.603 146.597 439.144 244.181 346.39C325.402 269.188 485.94 185.619 512.039 211.406Z" fill="#29D93B"/>
</g>
<g filter="url(#filter2_f_4035_154)">
<path d="M495.432 415.898C462.097 590.39 290.027 554.63 282.228 698.896C262.806 1058.18 172.102 489.779 208.198 363.888C267.911 155.626 670.644 192.392 713.419 225.271C809.643 299.235 520.067 286.94 495.432 415.898Z" fill="#19F9C3" fill-opacity="0.85"/>
</g>
</g>
<defs>
<filter id="filter0_f_4035_154" x="55.7526" y="92.8434" width="784.103" height="830.358" filterUnits="userSpaceOnUse" color-interpolation-filters="sRGB">
<feFlood flood-opacity="0" result="BackgroundImageFix"/>
<feBlend mode="normal" in="SourceGraphic" in2="BackgroundImageFix" result="shape"/>
<feGaussianBlur stdDeviation="53.4599" result="effect1_foregroundBlur_4035_154"/>
</filter>
<filter id="filter1_f_4035_154" x="65.8655" y="109.829" width="545.483" height="531.458" filterUnits="userSpaceOnUse" color-interpolation-filters="sRGB">
<feFlood flood-opacity="0" result="BackgroundImageFix"/>
<feBlend mode="normal" in="SourceGraphic" in2="BackgroundImageFix" result="shape"/>
<feGaussianBlur stdDeviation="48.4034" result="effect1_foregroundBlur_4035_154"/>
</filter>
<filter id="filter2_f_4035_154" x="0.540344" y="0.507385" width="931.651" height="1015.03" filterUnits="userSpaceOnUse" color-interpolation-filters="sRGB">
<feFlood flood-opacity="0" result="BackgroundImageFix"/>
<feBlend mode="normal" in="SourceGraphic" in2="BackgroundImageFix" result="shape"/>
<feGaussianBlur stdDeviation="99.6279" result="effect1_foregroundBlur_4035_154"/>
</filter>
</defs>
</svg>
