<svg width="200" height="199" viewBox="0 0 200 199" fill="none" xmlns="http://www.w3.org/2000/svg">
<mask id="mask0_4035_536" style="mask-type:alpha" maskUnits="userSpaceOnUse" x="0" y="0" width="201" height="199">
<path fill-rule="evenodd" clip-rule="evenodd" d="M167.242 82.8993C169.065 80.1364 169.255 76.1219 167.739 72.6506C166.034 68.4708 160.517 65.212 156.136 64.4328L156.183 64.3855L155.402 64.3147C154.928 64.2675 154.549 64.2438 154.028 64.2438C151.329 64.2438 148.913 65.3301 147.28 67.3137C145.788 69.1084 145.148 71.399 145.575 73.5716C146.072 76.1691 147.824 78.3417 150.311 79.4043L150.642 79.546L150.735 79.5869C151.715 80.0183 152.59 80.4035 153.555 81.3879C155.828 83.7494 158.409 85.9219 161.748 85.9219C163.998 85.9455 165.963 84.8593 167.242 82.8993ZM150.855 78.1055C148.842 77.2318 147.351 75.3899 146.948 73.2882C146.569 71.2337 147.256 69.2265 148.89 67.6443C150.263 66.3219 151.992 65.6371 154.052 65.6371C158.906 65.6371 163.998 69.321 165.466 71.399C165.845 71.9422 166.176 72.5561 166.437 73.1701C167.786 76.4053 167.668 79.7349 166.105 82.0728C165.063 83.6549 163.5 84.505 161.701 84.505C159.783 84.505 157.722 83.4896 155.757 81.5532C155.331 81.1518 154.999 80.8212 154.739 80.5378L154.718 80.5176C153.762 79.5875 153.347 79.184 150.855 78.1055Z" fill="url(#paint0_linear_4035_536)"/>
<path fill-rule="evenodd" clip-rule="evenodd" d="M162.245 63.2521C170.273 68.7542 171.93 77.0193 170.817 82.9229C169.752 88.5667 166.129 92.9118 161.606 93.9744C160.919 94.1397 160.185 94.2106 159.404 94.2106C158.196 94.2106 156.965 94.0453 155.781 93.8564L155.307 93.7855C155.257 93.7731 155.201 93.7672 155.142 93.761C155.088 93.7554 155.032 93.7495 154.976 93.7383L154.945 93.7341C153.243 93.4984 150.888 93.1725 148.44 89.3224C148.035 88.6983 147.701 88.1313 147.395 87.6102L147.395 87.6096L147.394 87.6076C147.306 87.4593 147.221 87.3146 147.137 87.1735C146.076 85.24 145.666 84.8097 145.252 84.3737L145.219 84.3397C144.983 84.1036 144.746 83.8675 144.438 83.4424C142.946 81.3879 141.099 80.3725 139.299 79.4043L139.246 79.3753C137.798 78.5832 136.421 77.8304 135.345 76.5706C132.764 73.5716 132.787 70.0058 135.463 65.9913C138.471 61.4573 143.278 58.9542 149.032 58.9542C153.507 58.9542 158.196 60.4892 162.245 63.2521ZM155.26 92.3923C155.52 92.4159 155.757 92.4395 156.017 92.4867L156.373 92.5339C157.178 92.652 157.983 92.7701 158.788 92.7937L159.072 92.7937C162.458 92.7937 165.418 91.0935 167.384 87.9764C170.32 83.3479 170.51 76.7831 167.857 71.2337C165.371 66.1094 158.172 61.3157 151.85 60.5364C150.903 60.4183 149.979 60.3711 149.103 60.3711C143.656 60.3711 139.465 62.52 136.671 66.7706C134.327 70.2891 134.256 73.1229 136.434 75.6496C137.329 76.7028 138.559 77.3786 139.884 78.1074L140.01 78.1764C145.226 81.0114 147.155 84.3345 148.711 87.0157L148.748 87.079C150.026 89.3224 151.068 91.0935 153.507 92.0617C153.98 92.2462 154.507 92.3061 155.025 92.3651C155.073 92.3706 155.122 92.3761 155.17 92.3817L155.22 92.3875L155.26 92.3923Z" fill="url(#paint1_linear_4035_536)"/>
<path fill-rule="evenodd" clip-rule="evenodd" d="M171.48 91.6366C174.298 85.119 174.346 77.2554 171.599 70.6197C169.823 66.4636 166.176 62.2839 161.559 59.1667C157.864 56.6872 151.873 53.7118 144.225 53.7118C141.999 53.7118 139.749 53.9716 137.547 54.4911C131.959 55.8371 127.649 58.8361 124.381 63.6771C121.208 68.3055 120.545 72.32 122.392 75.6024C124.334 79.0973 127.436 80.3253 130.183 81.4115L130.301 81.4588C135.866 83.6785 136.86 84.8356 139.228 88.1653C139.655 88.7793 139.939 89.2752 140.152 89.8655C140.294 90.2433 140.436 90.6212 140.602 90.999L141.028 92.0617C142.899 97.2568 145.622 102.665 151.471 103.208C151.637 103.231 151.779 103.231 151.968 103.231C152.418 103.231 152.844 103.184 153.271 103.137C153.31 103.133 153.35 103.13 153.389 103.126L153.649 103.101C153.725 103.094 153.8 103.087 153.876 103.08C153.926 103.075 153.977 103.071 154.028 103.066C154.668 103.019 155.236 102.995 155.804 102.995C157.604 102.948 159.143 102.901 161.369 102.051C165.703 100.35 169.302 96.6665 171.48 91.6366ZM155.982 101.554C155.816 101.56 155.653 101.566 155.496 101.578L155.496 101.578C155.165 101.602 154.833 101.626 154.502 101.673C153.815 101.744 153.128 101.814 152.394 101.814C150.926 101.814 148.961 101.555 146.901 99.6419C144.698 97.5402 143.68 94.9662 142.615 92.227L142.584 92.1495C141.196 88.6551 139.766 85.0524 135.629 82.427C134.08 81.4359 132.509 80.8047 130.96 80.1822L130.846 80.1364C128.999 79.4043 127.223 78.6959 125.802 77.4916C123.86 75.8622 122.771 73.7369 122.794 71.6352C122.865 67.786 125.991 63.2048 129.07 60.3711C132.906 56.8762 138.044 55.1051 144.343 55.1051C145.456 55.1051 146.593 55.1523 147.777 55.2704C156.87 56.1441 166.981 63.2757 170.32 71.1629C173.185 78.0819 172.83 86.3706 169.397 92.7701C166.91 97.3985 163.169 100.421 158.835 101.295C158.17 101.436 157.488 101.474 156.817 101.511L156.816 101.511L156.814 101.511C156.698 101.518 156.582 101.524 156.467 101.531C156.305 101.543 156.142 101.549 155.982 101.554L155.982 101.554Z" fill="url(#paint2_linear_4035_536)"/>
<path fill-rule="evenodd" clip-rule="evenodd" d="M165.939 59.1431C159.522 53.1451 151.424 49.2959 143.751 48.5875C142.401 48.4694 141.052 48.4222 139.726 48.4222L139.465 48.4222C133.806 48.4222 128.785 49.4612 124.523 51.492C120.048 53.641 116.259 56.947 113.251 61.3393C108.965 67.5026 108.136 72.6978 110.789 76.8067C113.468 81.0496 117.221 82.2674 121.191 83.5555L121.279 83.5841C125.565 84.9537 129.969 86.3942 133.261 91.8255C133.687 92.5576 134.469 93.9272 134.682 95.0135C135.132 97.3985 135.818 100.35 138.281 105.215C139.726 108.167 141.904 110.292 144.604 111.378C146.096 111.969 147.824 112.276 149.695 112.276C150.855 112.276 152.087 112.158 153.413 111.945C160.28 110.741 166.65 106.514 170.841 100.279C175.246 93.7619 176.998 85.6621 175.814 77.4443C175.482 75.0829 174.89 72.7687 174.038 70.5489C172.475 66.5817 169.657 62.6381 165.939 59.1431ZM149.671 110.906C144.935 110.906 141.715 108.899 139.56 104.625C137.192 99.9253 136.529 97.0679 136.079 94.7773C135.724 92.8646 133.356 87.9527 128.407 85.0009C126.228 83.7022 123.955 82.9701 121.752 82.2617L121.673 82.2357C119.31 81.466 117.066 80.7348 115.146 79.3571C112.304 77.3262 110.67 74.5397 110.694 71.6824C110.718 66.6289 114.933 60.5128 119.124 56.6872C124.192 52.106 131.106 49.7918 139.655 49.7918C140.957 49.7918 142.283 49.839 143.633 49.9571C150.832 50.5475 158.788 54.3258 164.921 60.0641C168.521 63.441 171.22 67.2429 172.712 71.0448C173.517 73.1701 174.109 75.3899 174.417 77.6332C176.998 95.3441 165.395 108.497 153.176 110.528C151.921 110.812 150.737 110.906 149.671 110.906Z" fill="url(#paint3_linear_4035_536)"/>
<path fill-rule="evenodd" clip-rule="evenodd" d="M129.283 100.279C128.999 98.7918 128.478 97.3985 127.696 96.0997C123.505 88.9446 117.845 87.3624 112.375 85.8511L112.365 85.8482C109.314 84.9991 106.428 84.1961 103.779 82.4978C99.7063 79.9238 97.2673 75.933 97.2199 71.8241C97.2199 67.9749 98.8302 63.7952 102.169 59.0487C107.497 51.3031 114.175 46.6747 123.197 44.5022C126.938 43.6285 131.011 43.1562 134.942 43.1562C140.72 43.1562 146.19 44.148 150.761 46.0135C154.549 47.5248 158.149 49.5085 161.464 51.9171C166.271 55.3885 170.131 59.3557 172.972 63.7007C176.027 68.4 177.898 73.5952 178.513 79.0973C179.082 84.0328 178.798 88.9682 177.614 93.8091C176.501 98.3195 174.677 102.546 172.12 106.419C169.728 110.079 166.745 113.267 163.216 115.865C158.243 119.596 151.968 121.816 146.451 121.816C140.389 121.816 135.937 118.959 133.237 113.291C130.323 107.173 129.764 103.452 129.316 100.464L129.306 100.398L129.283 100.279ZM146.498 120.375C148.108 120.375 149.861 120.139 151.708 119.714C168.592 114.897 179.271 97.8708 177.14 79.2154C176.832 76.4289 176.169 73.666 175.198 71.0212C170.154 57.5846 154.17 45.7774 139.56 44.7147C137.997 44.5966 136.434 44.5494 134.942 44.5494C124.192 44.5494 115.548 47.4068 109.226 53.0742C103.945 57.8916 98.6171 65.5426 98.6407 71.8005C98.6407 75.3662 100.867 78.9084 104.561 81.2935C107.021 82.874 109.812 83.6533 112.768 84.4788L112.778 84.4814L113.121 84.58C115.81 85.3512 118.598 86.1509 121.255 87.6458C125.968 90.3142 129.851 95.4149 130.68 100.043L130.727 100.35C131.153 103.208 131.698 106.773 134.516 112.653C136.955 117.778 140.981 120.375 146.498 120.375Z" fill="url(#paint4_linear_4035_536)"/>
<path fill-rule="evenodd" clip-rule="evenodd" d="M103.415 88.1039C99.9515 87.2346 96.3739 86.3366 93.218 84.4342C88.2689 81.5296 85.1905 76.7123 85.1431 71.8949C85.1194 67.361 87.0612 62.3783 91.0631 56.7109C97.7646 47.2415 105.224 42.0935 116.022 39.4959C120.616 38.4097 125.352 37.8665 130.088 37.8665L130.49 37.8665C136.552 37.8901 141.691 38.4333 148.558 41.1489C162.435 46.6983 179.319 60.3711 181.189 80.6559C182.255 91.7547 179.508 103.019 173.493 112.394C169.681 118.368 164.637 123.304 158.859 126.657C153.744 129.632 148.227 131.285 143.301 131.285C141.052 131.285 138.991 130.955 137.192 130.27C133.261 128.782 130.23 125.759 128.17 121.273C124.899 114.214 124.371 109.821 123.948 106.303L123.931 106.159C123.694 104.129 123.292 102.381 122.108 100.327C117.04 91.4949 110.149 89.7711 103.471 88.118L103.415 88.1039ZM86.5639 71.8949C86.5876 76.24 89.3582 80.467 93.9521 83.2299C96.9594 85.0482 100.298 85.8747 103.827 86.7248C107.26 87.5749 110.789 88.4486 114.127 90.2906C119.953 93.4785 124.523 99.6655 125.257 105.309L125.304 105.734L125.313 105.806C125.761 109.52 126.272 113.76 129.448 120.659C130.372 122.737 131.651 124.579 133.285 126.137C135.866 128.57 139.418 129.845 143.538 129.845C151.542 129.845 160.896 125.051 167.928 117.329C176.88 107.505 181.095 94.5176 179.769 80.774C177.661 58.0805 154.691 40.7711 135.392 39.4487C133.758 39.3306 132.124 39.2834 130.514 39.2834C121.468 39.2834 108.681 41.0545 99.2801 49.4376C94.1415 54.0188 86.4929 63.7952 86.5639 71.8949Z" fill="url(#paint5_linear_4035_536)"/>
<path fill-rule="evenodd" clip-rule="evenodd" d="M116.543 104.554C117.608 106.466 118.248 108.545 118.461 110.717C118.473 110.882 118.491 111.048 118.508 111.213C118.526 111.378 118.544 111.544 118.556 111.709C118.935 115.865 119.432 121.06 123.126 129.278C125.47 134.497 128.951 137.992 133.498 139.692C135.534 140.448 137.807 140.849 140.223 140.849C150.476 140.849 165.182 133.906 174.89 118.392C178.182 113.173 180.645 107.505 182.184 101.531C187.441 81.2699 180.787 66.3928 174.298 57.4901C169.089 50.3822 161.985 44.2424 153.697 39.7321C146.19 35.6468 138.186 33.1672 131.13 32.7658L130.869 32.7422C129.188 32.6477 127.507 32.6005 125.873 32.6005C115.004 32.6005 99.659 34.7022 88.3873 44.7383C85.4746 47.3359 82.7041 50.5002 79.9098 54.3966C75.2212 60.9851 72.9716 66.747 73.0426 71.9894C73.0663 74.9884 74.0609 77.8458 75.9789 80.4906C80.9754 87.2679 87.5111 88.7556 94.402 90.3142L94.4055 90.315C102.385 92.133 110.576 93.9996 116.543 104.554ZM74.4871 71.9894C74.4397 67.054 76.5946 61.5754 81.0938 55.2231C83.817 51.3976 86.5166 48.3277 89.3582 45.801C100.298 36.0718 115.264 34.0174 125.896 34.0174C127.672 34.0174 129.472 34.0646 131.295 34.1827C151.447 35.4579 173.304 51.9407 180.053 70.9267C184.576 83.7966 183.344 98.9098 176.643 112.417C170.462 124.909 160.256 134.237 148.677 138.015C145.622 138.984 142.757 139.456 140.128 139.456L140.104 139.456C135.653 139.456 131.887 138.039 128.927 135.276C127.128 133.599 125.589 131.38 124.405 128.688C120.805 120.682 120.332 115.652 119.953 111.591C119.941 111.414 119.923 111.242 119.905 111.071C119.888 110.9 119.87 110.729 119.858 110.552C119.408 105.923 116.638 100.87 112.257 96.6665C106.954 91.7091 100.823 90.3151 94.9051 88.9695L94.8993 88.9682L94.7362 88.9308C90.6764 88.0003 86.8488 87.123 83.3671 85.119C77.8733 82.0255 74.5345 77.0901 74.4871 71.9894Z" fill="url(#paint6_linear_4035_536)"/>
<path fill-rule="evenodd" clip-rule="evenodd" d="M61.9604 77.2082C61.3684 75.5788 61.0368 73.8313 61.0132 72.0839C60.9658 68.7778 61.7473 65.212 63.3101 61.4574C64.5889 58.5055 66.3885 55.4357 68.7802 52.0824C71.977 47.6193 75.1265 44.0299 78.4417 41.0781C91.2763 29.6959 108.776 27.3109 121.208 27.3109C123.173 27.3345 125.21 27.3817 127.223 27.4998C135.155 27.9721 144.154 30.7586 152.584 35.387C161.866 40.4877 169.87 47.4304 175.696 55.4593C183.036 65.5663 190.496 82.427 184.434 105.38C182.681 112.11 179.911 118.486 176.24 124.39C171.386 132.253 164.992 138.865 157.746 143.518C151.258 147.697 144.296 150.13 138.139 150.366C137.76 150.389 137.405 150.389 137.026 150.389C134.564 150.389 132.124 149.964 129.78 149.138C127.246 148.17 124.878 146.658 122.984 144.722C121.018 142.715 119.361 140.212 118.058 137.26C113.962 127.956 113.512 122.123 113.157 117.447C113.134 117.197 113.116 116.952 113.099 116.71C113.081 116.45 113.063 116.193 113.038 115.936C112.801 113.197 112.138 110.906 110.954 108.781C104.111 96.5012 94.6388 94.494 85.4746 92.5576L85.4429 92.5508C77.5928 90.8767 70.1459 89.2885 64.3994 81.6949C63.3812 80.3253 62.5524 78.814 61.9604 77.2082ZM62.4103 72.0839C62.505 77.9638 66.3649 83.5605 72.7821 87.079C76.8551 89.3224 81.2833 90.2433 85.9719 91.2115C92.7918 92.652 99.8247 94.1397 105.911 99.8308C108.302 102.074 110.362 104.79 112.209 108.096C114.151 111.591 114.388 114.661 114.554 116.904L114.577 117.282L114.583 117.35C114.937 121.943 115.378 127.67 119.361 136.693C122.889 144.722 129.046 148.972 137.121 148.972C140.27 148.972 143.704 148.335 147.351 147.083C175.08 137.472 192.485 99.7364 182.468 70.8559C173.991 46.4622 147.161 30.0974 127.175 28.893C125.21 28.775 123.221 28.7277 121.303 28.7277C109.107 28.7277 91.9393 31.042 79.4362 42.1407C76.1921 45.0217 73.1137 48.5402 69.9879 52.9089C64.802 60.1822 62.3393 66.44 62.4103 72.0839Z" fill="url(#paint7_linear_4035_536)"/>
<path fill-rule="evenodd" clip-rule="evenodd" d="M107.758 123.067C107.734 122.406 107.687 121.792 107.639 121.178C107.402 117.943 106.716 115.44 105.366 113.008C97.6225 99.0043 86.9191 96.8554 76.5473 94.8009L76.4613 94.7837C67.6367 93.0191 59.287 91.3494 52.7725 82.8993C51.6122 81.3643 50.6887 79.6877 50.002 77.893C49.3152 76.0511 48.9364 74.1147 48.9127 72.1547C48.8417 68.4472 49.7415 64.4328 51.5648 60.253C52.9857 56.947 54.9984 53.5229 57.698 49.7446C61.2973 44.7383 64.8257 40.7003 68.5434 37.4179C82.9172 24.6897 102.619 22.0212 116.614 22.0212L116.685 22.0212C118.792 22.0212 120.947 22.0921 123.126 22.2102C135.203 22.895 148.795 28.2082 160.375 36.7803C163.003 38.7167 165.537 40.8183 167.929 43.0381C176.548 51.067 182.871 60.5128 186.257 70.36C190.211 81.9075 190.401 95.6983 186.754 109.253C184.765 116.692 181.71 123.823 177.661 130.388C173.849 136.622 169.136 142.242 163.642 147.06C158.243 151.759 152.418 155.301 146.38 157.521C142.567 158.938 138.92 159.741 135.511 159.906C135.013 159.93 134.516 159.953 134.019 159.953C131.296 159.953 128.643 159.481 126.086 158.584C123.221 157.545 120.592 155.821 118.461 153.648C116.259 151.405 114.435 148.595 112.991 145.289C108.502 134.9 108.091 128.365 107.76 123.105L107.758 123.067ZM123.055 23.627C120.9 23.5089 118.721 23.4381 116.614 23.4381C102.879 23.4381 83.5566 26.0593 69.5143 38.5041C65.8913 41.7157 62.4103 45.6593 58.882 50.5947C53.033 58.7889 50.2388 65.8496 50.3335 72.1783C50.4519 78.814 54.88 85.119 62.1972 89.0154C66.7643 91.4335 71.7059 92.4279 76.9522 93.4836L77.1149 93.5163C87.6781 95.6371 98.6112 97.8323 106.621 112.37C108.75 116.216 108.965 119.638 109.154 122.659L109.155 122.666L109.178 123.02L109.181 123.067C109.512 128.183 109.926 134.575 114.317 144.722C118.224 153.743 125.091 158.513 134.184 158.513C137.808 158.513 141.762 157.733 145.906 156.198C171.196 146.871 189.596 115.794 187.796 85.4496C186.92 70.2655 179.745 55.9788 167.1 44.148C154.455 32.3171 137.571 24.4535 123.055 23.627Z" fill="url(#paint8_linear_4035_536)"/>
<path fill-rule="evenodd" clip-rule="evenodd" d="M102.24 126.421C102.074 123.776 101.648 120.612 99.8247 117.282C91.1815 101.531 79.1047 99.2404 67.3831 97.0443L67.3122 97.0309C57.5112 95.1703 48.2326 93.409 41.1693 84.1508C39.8669 82.4742 38.825 80.6086 38.0672 78.625C37.2858 76.5706 36.8832 74.4453 36.8358 72.2727C36.7648 68.1638 37.7357 63.7243 39.7722 59.0959C41.3587 55.4357 43.6083 51.6337 46.592 47.454C50.5939 41.9046 54.5248 37.4415 58.6215 33.8048C66.1991 27.0983 75.8605 22.281 87.298 19.5181C94.8993 17.6762 103.211 16.7552 112.02 16.7552C121.658 16.7552 129.283 17.5817 139.797 21.7142C147.043 24.5716 153.863 28.3735 160.114 33.0019C162.979 35.1036 165.75 37.3942 168.355 39.8265C177.945 48.7764 184.978 59.3084 188.696 70.3128C193.006 82.9229 193.124 98.107 189.051 113.079C186.873 121.273 183.51 129.113 179.082 136.362C174.914 143.258 169.776 149.468 163.784 154.852C157.888 160.118 151.542 164.086 144.959 166.636C140.72 168.265 136.671 169.21 132.858 169.446L132.79 169.449C132.199 169.472 131.629 169.493 131.059 169.493C127.98 169.493 125.068 168.997 122.392 168.029C119.219 166.872 116.306 164.959 113.962 162.551C111.546 160.071 109.51 156.954 107.947 153.294C103.052 141.819 102.671 134.588 102.364 128.774L102.358 128.664C102.335 127.979 102.287 127.176 102.24 126.421ZM51.6122 90.9518C56.7271 93.5966 62.2682 94.6592 68.1172 95.7691L68.1198 95.7696C79.9353 98.0128 92.1294 100.328 101.032 116.644C103.377 120.871 103.566 124.72 103.732 128.121L103.756 128.546C104.04 134.284 104.419 141.439 109.249 152.774C110.907 156.647 113.086 159.859 115.714 162.315C119.858 166.164 124.997 168.124 131.059 168.124C135.226 168.124 139.726 167.179 144.485 165.337C172.001 154.664 192.201 120.257 190.496 87.0082C189.643 70.3128 181.497 53.948 167.55 40.9128C153.602 27.8776 134.966 19.2347 118.958 18.361C116.661 18.2429 114.364 18.1721 112.115 18.1721C96.7463 18.1721 75.1975 21.0766 59.5687 34.8911C55.5431 38.4333 51.6832 42.8255 47.7523 48.3041C41.2403 57.3956 38.1382 65.2356 38.2566 72.2727C38.4224 81.0101 45.2659 87.6458 51.6122 90.9518Z" fill="url(#paint9_linear_4035_536)"/>
<path fill-rule="evenodd" clip-rule="evenodd" d="M163.95 162.692C170.439 156.765 176.027 149.941 180.526 142.384C185.333 134.45 188.98 125.901 191.395 116.951C195.042 103.515 195.753 90.7393 193.456 79.0265C191.277 67.8569 186.304 57.2304 178.703 47.4304C175.696 43.5812 172.357 39.9446 168.805 36.5914C162.837 31.0184 156.16 26.1774 149.032 22.1865C145.385 20.1557 141.549 18.361 137.665 16.8261C133.948 15.362 130.088 14.1576 126.181 13.2603C122.771 12.481 119.29 11.9379 115.809 11.7017L114.933 11.6545C112.47 11.5364 110.007 11.4656 107.592 11.4656L107.521 11.4656C104.158 11.4656 100.843 11.5836 97.6462 11.8198C91.7735 12.2448 85.9009 13.1422 80.1703 14.5118C67.6199 17.5345 57.0586 22.8005 48.7469 30.1446C44.2477 34.1118 39.9379 39.0236 35.5335 45.1398C32.2419 49.721 29.7792 53.9007 28.0269 57.9152C25.8009 62.9923 24.7117 67.8569 24.8064 72.3672C24.8538 74.7523 25.3274 77.0901 26.1798 79.3098C27.0323 81.4824 28.1926 83.5132 29.6134 85.3551C32.3366 88.8737 36.0781 91.8963 40.4115 94.1161C46.1811 97.0751 52.5831 98.2358 58.8022 99.3634L58.9219 99.3851C71.6331 101.698 84.7683 104.089 94.2599 121.509C96.2254 125.122 96.6753 128.522 96.841 131.639C96.8884 132.49 96.9358 133.34 96.9594 134.237C97.2199 140.637 97.5514 148.618 102.903 161.276C104.608 165.29 106.81 168.714 109.486 171.453C112.067 174.122 115.264 176.2 118.745 177.475C121.634 178.514 124.76 179.057 128.075 179.057C128.785 179.057 129.519 179.034 130.254 178.986C134.445 178.703 138.92 177.617 143.562 175.728C150.713 172.87 157.557 168.478 163.95 162.692ZM41.0509 92.8645C33.9942 89.2751 26.393 81.9783 26.2035 72.3436C26.0614 64.6217 29.4714 55.9788 36.6701 45.9663C41.0035 39.9446 45.2423 35.1036 49.6704 31.2072C66.8148 16.0704 90.5422 12.8824 107.426 12.8824C109.865 12.8824 112.351 12.9533 114.838 13.0714C132.337 13.9687 152.679 23.4145 167.952 37.7012C183.368 52.1297 192.319 70.1947 193.171 88.5667C194.782 124.697 172.759 162.433 143.041 174.452C137.831 176.554 132.835 177.617 128.217 177.617C121.539 177.617 115.832 175.444 111.262 171.17C108.373 168.478 106.005 164.959 104.229 160.756C99.3511 149.232 98.6881 141.865 98.3803 134.119L98.3566 133.788C98.1908 129.703 98.0014 125.476 95.4913 120.848C85.6878 102.83 72.2138 100.374 59.1898 98.0125C52.7725 96.8554 46.6867 95.7455 41.0509 92.8645Z" fill="url(#paint10_linear_4035_536)"/>
<path fill-rule="evenodd" clip-rule="evenodd" d="M164.116 170.485C170.912 164.227 176.927 156.789 181.994 148.382C187.157 139.786 191.111 130.506 193.74 120.824C196.463 110.812 197.647 100.445 197.244 90.078C196.937 82.12 195.255 74.1855 192.248 66.5345C189.359 59.1667 185.262 52.0352 180.053 45.3051C176.761 41.0781 173.114 37.0636 169.184 33.4034C162.719 27.3581 155.52 22.1393 147.777 17.8179C143.822 15.6217 139.655 13.6617 135.44 11.9851C131.39 10.4029 127.199 9.10415 122.984 8.11234C118.982 7.19137 114.885 6.60101 110.789 6.38847C108.16 6.24679 105.532 6.19956 102.951 6.19956L102.903 6.19956C99.1854 6.19956 95.515 6.34125 91.9867 6.601C85.593 7.07329 79.1994 8.04149 72.9716 9.52919C59.3082 12.8352 47.8234 18.5499 38.8013 26.508C33.8995 30.8294 29.1872 36.1663 24.4038 42.8255C20.8045 47.8318 18.1286 52.3658 16.2342 56.7108C15.1213 59.1904 14.2451 61.7879 13.6058 64.4328C12.9664 67.054 12.6822 69.746 12.7059 72.4617C12.7533 75.0593 13.2742 77.586 14.2214 80.0183C15.145 82.3797 16.4237 84.5759 17.9866 86.5831C20.9702 90.4086 25.0669 93.691 29.8266 96.0761C36.1299 99.2425 43.0873 100.475 49.8403 101.672L50.0192 101.704C63.9067 104.157 78.2861 106.698 88.6714 125.807C90.6842 129.514 91.2289 132.938 91.4183 136.953C91.4443 137.458 91.4632 137.97 91.4827 138.501C91.4988 138.938 91.5153 139.388 91.5367 139.857L91.5367 139.881C91.7735 146.871 92.0814 155.561 97.8593 169.375C99.6116 173.579 101.885 177.168 104.632 180.073C107.26 182.906 110.552 185.173 114.127 186.661C117.49 188.031 121.184 188.739 125.115 188.739C125.754 188.739 126.417 188.716 127.057 188.692C131.816 188.432 136.908 187.157 142.165 184.961C149.837 181.655 157.225 176.814 164.116 170.485ZM124.807 187.228C121.303 187.228 117.893 186.567 114.648 185.268C111.783 184.087 109.178 182.41 106.929 180.285C103.732 177.286 101.103 173.413 99.1617 168.761C93.4898 155.21 93.1955 146.669 92.9589 139.804L92.9575 139.763L92.9575 139.692L92.9528 139.563C92.7656 134.47 92.6035 130.063 89.9265 125.098C79.207 105.394 64.5385 102.81 50.3399 100.308L50.3098 100.303C43.3005 99.0751 36.6701 97.8944 30.4659 94.8009C22.6989 90.9045 14.3398 82.9937 14.1267 72.438C13.9609 64.0077 17.7024 54.5855 25.5642 43.6521C30.3002 37.0636 34.9415 31.7976 39.7485 27.5706C58.4557 11.0877 84.3617 7.61643 102.832 7.61643C105.413 7.61643 108.089 7.68726 110.718 7.80534C129.685 8.74992 151.779 18.975 168.355 34.4897C179.603 44.9981 187.843 57.5137 192.248 70.667C194.355 76.9484 195.563 83.5132 195.847 90.1253C197.458 129.798 174.133 169.966 141.62 183.568C135.818 186 130.254 187.228 125.091 187.228L124.807 187.228Z" fill="url(#paint11_linear_4035_536)"/>
<path fill-rule="evenodd" clip-rule="evenodd" d="M2.31037 80.7031C3.32861 83.2535 4.70205 85.6385 6.40701 87.7874C9.65118 91.92 14.103 95.4385 19.2653 97.9889C22.3673 99.5238 25.872 100.752 29.9923 101.767C33.6115 102.664 37.3962 103.301 41.0393 103.914L41.0509 103.916L41.0838 103.922C56.2051 106.494 71.8194 109.15 83.083 130.01C85.8165 135.086 85.947 139.624 86.1116 145.347L86.114 145.43L86.1145 145.448C86.3275 153.002 86.5925 162.397 92.7918 177.333C94.6862 181.867 97.1489 185.787 100.085 188.928C102.927 191.998 106.503 194.454 110.386 196.06C113.985 197.5 117.916 198.232 122.084 198.232C122.842 198.232 123.623 198.209 124.405 198.161C129.567 197.831 135.061 196.437 140.744 193.982C144.983 192.14 149.079 189.896 152.915 187.322C156.917 184.63 160.73 181.584 164.258 178.302C167.929 174.877 171.386 171.146 174.512 167.226C177.756 163.165 180.739 158.843 183.415 154.404C188.933 145.1 193.171 135.111 196.013 124.697C198.973 113.929 200.299 102.806 199.944 91.6366C199.328 74.1855 192.532 56.8998 180.242 41.6685C176.974 37.6068 173.375 33.734 169.562 30.1682L167.715 28.468C163.24 24.4771 158.433 20.7933 153.389 17.5109C148.487 14.3229 143.301 11.4892 137.973 9.10414C132.882 6.81353 127.578 4.92439 122.155 3.53114C117.087 2.20873 111.878 1.40583 106.645 1.12246C103.85 0.980766 101.056 0.909935 98.3092 0.909934C94.2363 0.909934 90.2106 1.05161 86.3508 1.3586C79.4599 1.8545 72.5453 2.94077 65.7965 4.52294C51.0439 8.0887 38.6119 14.2521 28.8794 22.8477C23.5987 27.4998 18.4838 33.2853 13.2979 40.5113C9.41436 45.919 6.50174 50.8308 4.44157 55.5301C3.25756 58.2222 2.28669 61.0087 1.59997 63.866C0.913234 66.6997 0.605403 69.6279 0.629084 72.5325C0.723795 75.3426 1.26844 78.0819 2.31037 80.7031ZM121.8 196.815C118.058 196.815 114.412 196.107 110.954 194.737C107.829 193.462 104.987 191.644 102.548 189.33C99.067 186.071 96.249 181.867 94.1415 176.79C88.0321 162.102 87.7716 152.822 87.5822 145.383C87.4164 139.432 87.2743 134.733 84.3854 129.325C79.1757 119.667 72.6164 112.96 64.3284 108.828C57.0486 105.175 49.21 103.844 41.6207 102.555L41.4298 102.523L41.1656 102.478C33.6617 101.196 26.5523 99.9814 19.952 96.7137C11.4982 92.5339 2.35774 83.9855 2.12094 72.5089C1.9315 63.3701 5.98077 53.1687 14.5056 41.3142C19.6442 34.1827 24.6643 28.4916 29.8739 23.8868C50.1203 6.03426 78.2522 2.30317 98.2855 2.30317C101.032 2.30317 103.85 2.37403 106.668 2.51571C127.436 3.53114 150.547 14.134 168.497 30.9239C187.086 48.375 197.765 69.9585 198.523 91.6838C199.991 134.332 174.914 177.758 140.175 192.706C133.829 195.422 127.743 196.815 122.084 196.815L121.8 196.815Z" fill="url(#paint12_linear_4035_536)"/>
</mask>
<g mask="url(#mask0_4035_536)">
<g filter="url(#filter0_f_4035_536)">
<ellipse cx="88.0102" cy="97.884" rx="101.188" ry="101.188" transform="rotate(1.53507 88.0102 97.884)" fill="#5C8C7F"/>
<circle cx="118.276" cy="123.263" r="24.6771" transform="rotate(1.53507 118.276 123.263)" fill="black"/>
<circle cx="161.723" cy="146.042" r="26.212" transform="rotate(1.53507 161.723 146.042)" fill="black"/>
<circle cx="188.757" cy="186.217" r="26.212" transform="rotate(1.53507 188.757 186.217)" fill="black"/>
<circle cx="152.876" cy="185.255" r="26.212" transform="rotate(1.53507 152.876 185.255)" fill="#5C8C7F"/>
<circle cx="203.058" cy="146.205" r="26.212" transform="rotate(1.53507 203.058 146.205)" fill="black"/>
</g>
</g>
<defs>
<filter id="filter0_f_4035_536" x="-86.3747" y="-76.501" width="388.842" height="362.126" filterUnits="userSpaceOnUse" color-interpolation-filters="sRGB">
<feFlood flood-opacity="0" result="BackgroundImageFix"/>
<feBlend mode="normal" in="SourceGraphic" in2="BackgroundImageFix" result="shape"/>
<feGaussianBlur stdDeviation="36.5981" result="effect1_foregroundBlur_4035_536"/>
</filter>
<linearGradient id="paint0_linear_4035_536" x1="200" y1="99.6729" x2="8.51022" y2="138.524" gradientUnits="userSpaceOnUse">
<stop stop-color="#19F9C3" stop-opacity="0.95"/>
<stop offset="0.9375" stop-color="#29D93B"/>
</linearGradient>
<linearGradient id="paint1_linear_4035_536" x1="200" y1="99.6729" x2="8.51022" y2="138.524" gradientUnits="userSpaceOnUse">
<stop stop-color="#19F9C3" stop-opacity="0.95"/>
<stop offset="0.9375" stop-color="#29D93B"/>
</linearGradient>
<linearGradient id="paint2_linear_4035_536" x1="200" y1="99.6729" x2="8.51022" y2="138.524" gradientUnits="userSpaceOnUse">
<stop stop-color="#19F9C3" stop-opacity="0.95"/>
<stop offset="0.9375" stop-color="#29D93B"/>
</linearGradient>
<linearGradient id="paint3_linear_4035_536" x1="200" y1="99.6729" x2="8.51022" y2="138.524" gradientUnits="userSpaceOnUse">
<stop stop-color="#19F9C3" stop-opacity="0.95"/>
<stop offset="0.9375" stop-color="#29D93B"/>
</linearGradient>
<linearGradient id="paint4_linear_4035_536" x1="200" y1="99.6729" x2="8.51022" y2="138.524" gradientUnits="userSpaceOnUse">
<stop stop-color="#19F9C3" stop-opacity="0.95"/>
<stop offset="0.9375" stop-color="#29D93B"/>
</linearGradient>
<linearGradient id="paint5_linear_4035_536" x1="200" y1="99.6729" x2="8.51022" y2="138.524" gradientUnits="userSpaceOnUse">
<stop stop-color="#19F9C3" stop-opacity="0.95"/>
<stop offset="0.9375" stop-color="#29D93B"/>
</linearGradient>
<linearGradient id="paint6_linear_4035_536" x1="200" y1="99.6729" x2="8.51022" y2="138.524" gradientUnits="userSpaceOnUse">
<stop stop-color="#19F9C3" stop-opacity="0.95"/>
<stop offset="0.9375" stop-color="#29D93B"/>
</linearGradient>
<linearGradient id="paint7_linear_4035_536" x1="200" y1="99.6729" x2="8.51022" y2="138.524" gradientUnits="userSpaceOnUse">
<stop stop-color="#19F9C3" stop-opacity="0.95"/>
<stop offset="0.9375" stop-color="#29D93B"/>
</linearGradient>
<linearGradient id="paint8_linear_4035_536" x1="200" y1="99.6729" x2="8.51022" y2="138.524" gradientUnits="userSpaceOnUse">
<stop stop-color="#19F9C3" stop-opacity="0.95"/>
<stop offset="0.9375" stop-color="#29D93B"/>
</linearGradient>
<linearGradient id="paint9_linear_4035_536" x1="200" y1="99.6729" x2="8.51022" y2="138.524" gradientUnits="userSpaceOnUse">
<stop stop-color="#19F9C3" stop-opacity="0.95"/>
<stop offset="0.9375" stop-color="#29D93B"/>
</linearGradient>
<linearGradient id="paint10_linear_4035_536" x1="200" y1="99.6729" x2="8.51022" y2="138.524" gradientUnits="userSpaceOnUse">
<stop stop-color="#19F9C3" stop-opacity="0.95"/>
<stop offset="0.9375" stop-color="#29D93B"/>
</linearGradient>
<linearGradient id="paint11_linear_4035_536" x1="200" y1="99.6729" x2="8.51022" y2="138.524" gradientUnits="userSpaceOnUse">
<stop stop-color="#19F9C3" stop-opacity="0.95"/>
<stop offset="0.9375" stop-color="#29D93B"/>
</linearGradient>
<linearGradient id="paint12_linear_4035_536" x1="200" y1="99.6729" x2="8.51022" y2="138.524" gradientUnits="userSpaceOnUse">
<stop stop-color="#19F9C3" stop-opacity="0.95"/>
<stop offset="0.9375" stop-color="#29D93B"/>
</linearGradient>
</defs>
</svg>
