<svg width="200" height="237" viewBox="0 0 200 237" fill="none" xmlns="http://www.w3.org/2000/svg">
<g clip-path="url(#clip0_4275_99)">
<path d="M195.299 110.287L89.1061 216.298C92.0205 216.845 94.9349 217.391 97.8493 217.756L196.574 119.031C196.392 116.116 195.846 113.202 195.299 110.287Z" fill="#5C8C7F"/>
<path d="M189.106 91.8904L70.8911 210.288C73.2591 211.381 75.627 212.291 78.1771 213.202L192.203 99.1764C191.292 96.8084 190.199 94.2583 189.106 91.8904Z" fill="#5C8C7F"/>
<path d="M171.255 66.2074C170.527 65.4788 169.616 64.7501 168.705 63.6572L42.6578 189.705C43.5686 190.798 44.4793 191.526 45.2079 192.255C45.9365 192.984 46.8473 193.712 47.758 194.805L173.806 68.7574C172.713 67.6645 171.984 66.936 171.255 66.2074Z" fill="#5C8C7F"/>
<path d="M171.255 192.255C179.452 184.058 185.827 174.768 190.199 164.204L143.204 211.198C153.587 206.827 163.059 200.451 171.255 192.255Z" fill="#5C8C7F"/>
<path d="M122.986 217.027L196.028 143.985C196.574 140.16 197.121 136.335 197.121 132.692L111.51 218.302C115.518 218.12 119.161 217.755 122.986 217.027Z" fill="#5C8C7F"/>
<path d="M138.104 45.26L24.0787 159.286C24.9895 161.654 25.9002 164.204 26.9931 166.572L145.208 48.3566C143.022 47.0815 140.654 46.1708 138.104 45.26Z" fill="#5C8C7F"/>
<path d="M93.1133 41.0706L19.8892 114.113C19.1606 118.302 18.7963 122.309 18.6141 126.317L105.317 39.6133C101.31 39.9776 97.1206 40.342 93.1133 41.0706Z" fill="#5C8C7F"/>
<path d="M45.0261 66.2073C36.8293 74.404 30.4541 83.6936 26.0825 94.2582L73.0771 47.2637C62.6946 51.6353 53.2228 58.0105 45.0261 66.2073Z" fill="#5C8C7F"/>
<path d="M154.68 53.0925L32.0931 175.679C33.3682 177.865 34.8254 179.869 36.1004 181.69L160.691 57.0998C158.869 55.8248 156.866 54.5497 154.68 53.0925Z" fill="#5C8C7F"/>
<path d="M118.25 40.7061L19.525 139.431C19.8893 142.346 20.2536 145.26 20.9822 148.174L126.993 42.1632C124.261 41.4346 121.164 41.0704 118.25 40.7061Z" fill="#5C8C7F"/>
<path d="M179.999 76.5898L55.4083 201.18C57.412 202.637 59.4156 203.912 61.4193 205.187L184.006 82.6008C182.913 80.5971 181.456 78.4113 179.999 76.5898Z" fill="#5C8C7F"/>
<path d="M179.998 88.9761L73.9874 194.987C76.9018 195.534 79.8162 196.08 82.7306 196.444L181.456 97.7192C181.091 94.8048 180.545 91.8905 179.998 88.9761Z" fill="#0F0B0B"/>
<path d="M173.988 70.5789L55.7725 188.794C58.1404 189.887 60.5083 190.798 63.0584 191.708L177.084 77.6827C175.991 75.3148 175.08 72.9468 173.988 70.5789Z" fill="#0F0B0B"/>
<path d="M155.955 44.8958C155.226 44.1672 154.316 43.4386 153.405 42.3457L27.3574 168.393C28.2682 169.486 29.1789 170.215 29.9075 170.943C30.6361 171.672 31.5469 172.401 32.4576 173.493L158.505 47.446C157.412 46.3531 156.684 45.6244 155.955 44.8958Z" fill="#0F0B0B"/>
<path d="M155.955 170.943C164.152 162.747 170.527 153.457 174.898 142.892L127.904 189.887C138.468 185.515 147.758 179.14 155.955 170.943Z" fill="#0F0B0B"/>
<path d="M107.685 195.716L180.727 122.674C181.273 118.849 181.82 115.206 181.82 111.38L96.2096 196.991C100.217 196.809 104.042 196.444 107.685 195.716Z" fill="#0F0B0B"/>
<path d="M122.986 23.9485L8.96008 137.974C9.87083 140.342 10.7816 142.892 11.8745 145.26L130.09 27.0451C127.722 25.77 125.354 24.8592 122.986 23.9485Z" fill="#0F0B0B"/>
<path d="M77.8126 19.7592L4.77065 92.8012C4.04205 96.9906 3.67776 100.998 3.49561 105.005L90.1988 18.302C86.0094 18.6663 81.8199 19.0306 77.8126 19.7592Z" fill="#0F0B0B"/>
<path d="M29.9074 44.8957C21.7107 53.0924 15.3355 62.3821 10.9639 72.9468L57.9585 25.9521C47.3938 30.3237 37.922 36.699 29.9074 44.8957Z" fill="#0F0B0B"/>
<path d="M139.379 31.781L16.7926 154.368C18.0676 156.553 19.5248 158.557 20.7999 160.379L145.572 35.9704C143.569 34.5132 141.565 33.0561 139.379 31.781Z" fill="#0F0B0B"/>
<path d="M103.131 19.3948L4.40637 118.12C4.77067 121.034 5.31712 123.949 5.86357 126.863L111.875 20.8519C108.96 20.1234 106.046 19.5769 103.131 19.3948Z" fill="#0F0B0B"/>
<path d="M164.88 55.2786L40.2897 179.869C42.2933 181.326 44.297 182.601 46.3006 183.876L168.887 61.2895C167.612 59.2858 166.337 57.1001 164.88 55.2786Z" fill="#0F0B0B"/>
</g>
<defs>
<clipPath id="clip0_4275_99">
<rect width="236" height="200" fill="white" transform="translate(199.994 0.302002) rotate(90)"/>
</clipPath>
</defs>
</svg>
