<svg width="23" height="23" viewBox="0 0 23 23" fill="none" xmlns="http://www.w3.org/2000/svg">
<g clip-path="url(#clip0_4035_847)">
<path d="M19.2472 4.63045C17.845 3.99738 16.3414 3.53096 14.7692 3.26381C14.7406 3.25866 14.712 3.27154 14.6972 3.29732C14.5038 3.63575 14.2896 4.07726 14.1396 4.42429C12.4487 4.17519 10.7664 4.17519 9.11008 4.42429C8.96005 4.06955 8.73806 3.63575 8.54381 3.29732C8.52907 3.2724 8.50046 3.25952 8.47184 3.26381C6.90054 3.53011 5.39689 3.99652 3.99381 4.63045C3.98166 4.63561 3.97126 4.6442 3.96435 4.65537C1.11223 8.84805 0.33092 12.9377 0.714206 16.9766C0.71594 16.9964 0.727213 17.0153 0.742822 17.0273C2.62457 18.3871 4.44736 19.2125 6.2363 19.7597C6.26493 19.7683 6.29527 19.758 6.31348 19.7347C6.73666 19.1661 7.11388 18.5666 7.43731 17.9361C7.4564 17.8991 7.43818 17.8553 7.39916 17.8407C6.80083 17.6174 6.23109 17.3451 5.68304 17.0359C5.63969 17.011 5.63622 16.95 5.6761 16.9208C5.79143 16.8357 5.90679 16.7472 6.01692 16.6579C6.03684 16.6416 6.06461 16.6381 6.08803 16.6484C9.68847 18.266 13.5863 18.266 17.1444 16.6484C17.1678 16.6373 17.1955 16.6407 17.2163 16.657C17.3264 16.7464 17.4418 16.8357 17.558 16.9208C17.5978 16.95 17.5953 17.011 17.5519 17.0359C17.0038 17.3511 16.4341 17.6174 15.8349 17.8399C15.796 17.8545 15.7785 17.8991 15.7976 17.9361C16.1281 18.5657 16.5053 19.1653 16.9206 19.7339C16.9379 19.758 16.9692 19.7683 16.9978 19.7597C18.7954 19.2125 20.6182 18.3871 22.4999 17.0273C22.5164 17.0153 22.5269 16.9972 22.5286 16.9775C22.9873 12.308 21.7603 8.25193 19.2758 4.65622C19.2698 4.6442 19.2594 4.63561 19.2472 4.63045ZM7.97498 14.5173C6.891 14.5173 5.99783 13.5381 5.99783 12.3355C5.99783 11.1329 6.87367 10.1537 7.97498 10.1537C9.08492 10.1537 9.96944 11.1415 9.95212 12.3355C9.95212 13.5381 9.07625 14.5173 7.97498 14.5173ZM15.2851 14.5173C14.2012 14.5173 13.308 13.5381 13.308 12.3355C13.308 11.1329 14.1838 10.1537 15.2851 10.1537C16.3951 10.1537 17.2796 11.1415 17.2623 12.3355C17.2623 13.5381 16.3951 14.5173 15.2851 14.5173Z" fill="url(#paint0_linear_4035_847)"/>
</g>
<defs>
<linearGradient id="paint0_linear_4035_847" x1="0.623291" y1="11.5042" x2="21.1518" y2="6.00796" gradientUnits="userSpaceOnUse">
<stop stop-color="#19F9C3" stop-opacity="0.95"/>
<stop offset="0.9375" stop-color="#29D93B"/>
</linearGradient>
<clipPath id="clip0_4035_847">
<rect width="22" height="22" fill="white" transform="translate(0.623291 0.512695)"/>
</clipPath>
</defs>
</svg>
