<svg width="17" height="16" viewBox="0 0 17 16" fill="none" xmlns="http://www.w3.org/2000/svg">
<path d="M13.6096 3.3335H7.52962L6.94295 1.3335H2.94295C2.20962 1.3335 1.60962 1.9335 1.60962 2.66683V11.3335C1.60962 12.0668 2.20962 12.6668 2.94295 12.6668H7.60962L8.27629 14.6668H13.6096C14.343 14.6668 14.943 14.0668 14.943 13.3335V4.66683C14.943 3.9335 14.343 3.3335 13.6096 3.3335ZM5.05629 9.72683C3.55629 9.72683 2.32962 8.50683 2.32962 7.00016C2.32962 5.4935 3.54962 4.2735 5.05629 4.2735C5.74962 4.2735 6.38295 4.52016 6.88295 4.98683L6.92962 5.02683L6.10962 5.8135L6.06962 5.78016C5.87629 5.60016 5.54962 5.38683 5.05629 5.38683C4.18295 5.38683 3.46962 6.1135 3.46962 7.00016C3.46962 7.88683 4.18295 8.6135 5.05629 8.6135C5.96962 8.6135 6.36295 8.0335 6.46962 7.64016H4.99629V6.60683H7.62962L7.63629 6.6535C7.66295 6.7935 7.66962 6.92016 7.66962 7.06016C7.66962 8.62683 6.59629 9.72683 5.05629 9.72683ZM9.07629 8.58683C9.29629 8.98683 9.56962 9.3735 9.86962 9.72016L9.50962 10.0735L9.07629 8.58683ZM9.58962 8.08016H8.92962L8.72295 7.38683H11.383C11.383 7.38683 11.1563 8.26016 10.343 9.2135C9.99629 8.80016 9.74962 8.3935 9.58962 8.08016ZM14.2763 13.3335C14.2763 13.7002 13.9763 14.0002 13.6096 14.0002H8.94295L10.2763 12.6668L9.73629 10.8202L10.3496 10.2068L12.1363 12.0002L12.623 11.5135L10.8163 9.72683C11.4163 9.04016 11.883 8.22683 12.0963 7.38683H12.943V6.6935H10.5163V6.00016H9.82295V6.6935H8.51628L7.72962 4.00016H13.6096C13.9763 4.00016 14.2763 4.30016 14.2763 4.66683V13.3335Z" fill="url(#paint0_linear_4394_9)"/>
<defs>
<linearGradient id="paint0_linear_4394_9" x1="1.60962" y1="7.99328" x2="14.4262" y2="5.4197" gradientUnits="userSpaceOnUse">
<stop stop-color="#19F9C3" stop-opacity="0.95"/>
<stop offset="0.9375" stop-color="#29D93B"/>
</linearGradient>
</defs>
</svg>
