<svg width="24" height="25" viewBox="0 0 24 25" fill="none" xmlns="http://www.w3.org/2000/svg">
<path d="M4 18.0859H20C20.55 18.0859 21 17.6359 21 17.0859C21 16.5359 20.55 16.0859 20 16.0859H4C3.45 16.0859 3 16.5359 3 17.0859C3 17.6359 3.45 18.0859 4 18.0859ZM4 13.0859H16C16.55 13.0859 17 12.6359 17 12.0859C17 11.5359 16.55 11.0859 16 11.0859H4C3.45 11.0859 3 11.5359 3 12.0859C3 12.6359 3.45 13.0859 4 13.0859ZM3 7.08594C3 7.63594 3.45 8.08594 4 8.08594H20C20.55 8.08594 21 7.63594 21 7.08594C21 6.53594 20.55 6.08594 20 6.08594H4C3.45 6.08594 3 6.53594 3 7.08594Z" fill="white"/>
</svg>
