<svg width="67" height="68" viewBox="0 0 67 68" fill="none" xmlns="http://www.w3.org/2000/svg">
<g id="Group 71">
<circle id="Ellipse 154" cx="33.4297" cy="34.2998" r="32.4297" stroke="#949494" stroke-opacity="0.4" stroke-width="2"/>
<path id="+" d="M33.6202 44.9181C32.6997 44.9181 31.9535 44.1719 31.9535 43.2515V35.7514H24.8921C24.0685 35.7514 23.4009 35.0838 23.4009 34.2602C23.4009 33.4366 24.0685 32.769 24.8921 32.769H31.9535V25.269C31.9535 24.3485 32.6997 23.6023 33.6202 23.6023C34.5407 23.6023 35.2869 24.3485 35.2869 25.269V32.769H42.3483C43.1719 32.769 43.8395 33.4366 43.8395 34.2602C43.8395 35.0838 43.1719 35.7514 42.3483 35.7514H35.2869V43.2515C35.2869 44.1719 34.5407 44.9181 33.6202 44.9181Z" fill="#949494" fill-opacity="0.4"/>
</g>
</svg>
