<svg width="33" height="32" viewBox="0 0 33 32" fill="none" xmlns="http://www.w3.org/2000/svg">
<g clip-path="url(#clip0_4053_937)">
<path d="M16.6471 0.640015C8.16391 0.640015 1.28711 7.51682 1.28711 16C1.28711 24.4832 8.16391 31.36 16.6471 31.36C25.1303 31.36 32.0071 24.4832 32.0071 16C32.0071 7.51682 25.1303 0.640015 16.6471 0.640015ZM12.8871 22.3664H9.77671V12.3568H12.8871V22.3664ZM11.3127 11.128C10.3303 11.128 9.69511 10.432 9.69511 9.57121C9.69511 8.69281 10.3495 8.01761 11.3527 8.01761C12.3559 8.01761 12.9703 8.69281 12.9895 9.57121C12.9895 10.432 12.3559 11.128 11.3127 11.128ZM24.2471 22.3664H21.1367V16.8192C21.1367 15.528 20.6855 14.6512 19.5607 14.6512C18.7015 14.6512 18.1911 15.2448 17.9655 15.816C17.8823 16.0192 17.8615 16.3072 17.8615 16.5936V22.3648H14.7495V15.5488C14.7495 14.2992 14.7095 13.2544 14.6679 12.3552H17.3703L17.5127 13.7456H17.5751C17.9847 13.0928 18.9879 12.1296 20.6663 12.1296C22.7127 12.1296 24.2471 13.5008 24.2471 16.448V22.3664Z" fill="url(#paint0_linear_4053_937)"/>
</g>
<defs>
<linearGradient id="paint0_linear_4053_937" x1="1.28711" y1="15.9842" x2="30.8164" y2="10.0546" gradientUnits="userSpaceOnUse">
<stop stop-color="#19F9C3" stop-opacity="0.95"/>
<stop offset="0.9375" stop-color="#29D93B"/>
</linearGradient>
<clipPath id="clip0_4053_937">
<rect width="32" height="32" fill="white" transform="translate(0.647217)"/>
</clipPath>
</defs>
</svg>
