<svg width="23" height="23" viewBox="0 0 23 23" fill="none" xmlns="http://www.w3.org/2000/svg">
<path d="M21.7138 3.26264C20.836 3.88182 19.8641 4.3554 18.8355 4.66514C18.2834 4.03035 17.5497 3.58044 16.7336 3.37623C15.9175 3.17203 15.0583 3.2234 14.2724 3.52338C13.4864 3.82337 12.8115 4.3575 12.339 5.05354C11.8665 5.74958 11.6192 6.57394 11.6305 7.41514V8.3318C10.0195 8.37357 8.42329 8.0163 6.98388 7.29179C5.54447 6.56729 4.30658 5.49805 3.38045 4.1793C3.38045 4.1793 -0.286215 12.4293 7.96379 16.096C6.07594 17.3774 3.82701 18.02 1.54712 17.9293C9.79712 22.5126 19.8805 17.9293 19.8805 7.38764C19.8796 7.1323 19.8551 6.8776 19.8071 6.6268C20.7427 5.70417 21.4029 4.53929 21.7138 3.26264Z" fill="url(#paint0_linear_4035_840)"/>
<defs>
<linearGradient id="paint0_linear_4035_840" x1="1.54712" y1="11.4691" x2="20.5613" y2="6.78793" gradientUnits="userSpaceOnUse">
<stop stop-color="#19F9C3" stop-opacity="0.95"/>
<stop offset="0.9375" stop-color="#29D93B"/>
</linearGradient>
</defs>
</svg>
